<svg xmlns="http://www.w3.org/2000/svg" width="600" height="375" fill="none" viewBox="0 0 600 375">
  <rect width="600" height="375" fill="#171717"/>
  <!-- Accordion rows -->
  <rect x="100" y="80" width="400" height="48" rx="10" fill="#262626" stroke="#333333" stroke-width="1"/>
  <rect x="124" y="98" width="120" height="10" rx="5" fill="#525252"/>
  <path d="M472 98 l8 8 l8 -8" stroke="#525252" stroke-width="2" stroke-linecap="round" stroke-linejoin="round" fill="none"/>
  <!-- Expanded section -->
  <rect x="100" y="140" width="400" height="48" rx="10" fill="#fafafa"/>
  <rect x="124" y="158" width="100" height="10" rx="5" fill="#a3a3a3"/>
  <path d="M472 170 l8 -8 l8 8" stroke="#a3a3a3" stroke-width="2" stroke-linecap="round" stroke-linejoin="round" fill="none"/>
  <!-- Content area -->
  <rect x="116" y="196" width="368" height="56" rx="8" fill="#262626"/>
  <rect x="136" y="212" width="200" height="8" rx="4" fill="#404040"/>
  <rect x="136" y="228" width="140" height="8" rx="4" fill="#404040"/>
  <!-- Collapsed rows -->
  <rect x="100" y="264" width="400" height="48" rx="10" fill="#262626" stroke="#333333" stroke-width="1"/>
  <rect x="124" y="282" width="140" height="10" rx="5" fill="#525252"/>
  <path d="M472 282 l8 8 l8 -8" stroke="#525252" stroke-width="2" stroke-linecap="round" stroke-linejoin="round" fill="none"/>
</svg>
