<svg xmlns="http://www.w3.org/2000/svg" width="600" height="375" fill="none" viewBox="0 0 600 375">
  <rect width="600" height="375" fill="#fafafa"/>
  <!-- Tab bar -->
  <rect x="100" y="100" width="400" height="44" rx="10" fill="#f5f5f5"/>
  <!-- Active tab -->
  <rect x="108" y="106" width="100" height="32" rx="8" fill="#171717"/>
  <rect x="128" y="118" width="60" height="8" rx="4" fill="#525252"/>
  <!-- Inactive tabs -->
  <rect x="228" y="118" width="50" height="8" rx="4" fill="#a3a3a3"/>
  <rect x="308" y="118" width="60" height="8" rx="4" fill="#a3a3a3"/>
  <rect x="398" y="118" width="45" height="8" rx="4" fill="#a3a3a3"/>
  <!-- Tab panel content -->
  <rect x="100" y="160" width="400" height="140" rx="12" fill="#f5f5f5" stroke="#e5e5e5" stroke-width="1"/>
  <rect x="132" y="188" width="200" height="10" rx="5" fill="#d4d4d4"/>
  <rect x="132" y="210" width="280" height="8" rx="4" fill="#e5e5e5"/>
  <rect x="132" y="228" width="240" height="8" rx="4" fill="#e5e5e5"/>
  <rect x="132" y="246" width="160" height="8" rx="4" fill="#e5e5e5"/>
  <rect x="132" y="270" width="80" height="10" rx="5" fill="#d4d4d4"/>
</svg>
